<svg width="20" height="20" viewBox="0 0 20 20" fill="none" xmlns="http://www.w3.org/2000/svg">
<circle cx="10" cy="10" r="10" fill="#F8F9FB"/>
<path d="M14.2119 11.2255L10.1843 15.2653C10.1345 15.3053 10.0735 15.3289 10.0097 15.3327C9.94442 15.3354 9.88089 15.311 9.83421 15.2653L5.80706 11.2251C5.17869 10.5962 4.73215 9.95912 4.46742 9.31234C4.20221 8.66603 4.12172 8.06919 4.225 7.52131C4.32827 6.97343 4.58621 6.49343 4.9993 6.08034C5.61021 5.46943 6.35057 5.16397 7.22136 5.16397C8.09215 5.16397 8.833 5.46943 9.44342 6.08034C9.66696 6.30343 9.85749 6.5573 10.0092 6.83428C10.161 6.5573 10.3515 6.30343 10.5751 6.08034C11.1865 5.46119 11.9268 5.15137 12.7976 5.15137C13.6684 5.15137 14.4136 5.46119 15.0332 6.08082C15.4463 6.49391 15.7023 6.97391 15.8012 7.52179C15.8997 8.06967 15.8168 8.66652 15.552 9.31282C15.2868 9.95961 14.8403 10.5967 14.2119 11.2255Z" fill="white" stroke="#CC2F2F"/>
</svg>
