<?xml version="1.0" encoding="UTF-8"?>
<svg width="200px" height="200px" viewBox="0 0 200 200" version="1.1" xmlns="http://www.w3.org/2000/svg" xmlns:xlink="http://www.w3.org/1999/xlink">
    <!-- Generator: Sketch 50.2 (55047) - http://www.bohemiancoding.com/sketch -->
    <title>icon_teacherPage-4</title>
    <desc>Created with Sketch.</desc>
    <defs>
        <linearGradient x1="50%" y1="100%" x2="50%" y2="0%" id="linearGradient-1">
            <stop stop-color="#FF512F" offset="0%"></stop>
            <stop stop-color="#F09819" offset="100%"></stop>
        </linearGradient>
        <path d="M160.981423,63.7662695 C161.32537,63.7035096 161.67978,63.6707264 162.041847,63.6707264 L173.172143,63.6707264 C176.413791,63.6707264 179.041667,66.2986017 179.041667,69.5402501 C179.041667,72.7818984 176.413791,75.4097737 173.172143,75.4097737 L167.042933,75.4097737 C166.098516,115.189379 133.754957,147.144602 93.9939778,147.144602 C67.1156258,147.144602 43.6268393,132.541908 30.9358925,110.790859 L25.8838616,110.790859 C22.9453429,110.790859 20.5632028,108.408719 20.5632028,105.470201 C20.5632028,102.551223 22.9137655,100.181249 25.8253121,100.149857 L57.8318415,100.149542 C59.4980297,100.149542 60.8487422,98.788689 60.8487422,97.1176024 C60.8487422,95.4431085 59.4929551,94.085663 57.8318415,94.085663 L23.1204938,94.085663 L22.4491369,94.085663 C20.7746431,94.085663 19.4171976,92.7282175 19.4171976,91.0537237 C19.4171976,89.4206565 20.7083079,88.0891444 22.3254546,88.0242611 C22.3252916,88.0234355 22.3251287,88.0226099 22.3249657,88.0217843 L29.2140378,88.0217843 C30.8760137,88.0217843 32.2233114,86.6609316 32.2233114,84.989845 C32.2233114,83.3153511 30.8736105,81.9579056 29.2140378,81.9579056 L21.6731704,81.9579056 C21.5776597,81.9579056 21.4831884,81.9623999 21.3899522,81.9711892 C21.3894548,81.9667614 21.3889576,81.9623336 21.3884609,81.9579056 L15.1680524,81.9579056 C13.4935585,81.9579056 12.136113,80.6004601 12.136113,78.9259662 C12.136113,77.2514724 13.4935585,75.8940269 15.1680524,75.8940269 L20.9580807,75.8940269 C20.9352814,75.138858 20.9237992,74.3808144 20.9237992,73.6200724 C20.9237992,63.5651873 22.9296825,53.9817146 26.5607655,45.2527049 L24.5668112,45.2527049 C21.3067216,45.2527049 18.6638968,42.60988 18.6638968,39.3497904 C18.6638968,36.0897008 21.3067216,33.4468759 24.5668112,33.4468759 L32.7854855,33.4468759 L37.4969971,33.4468759 C39.1608229,33.4468759 40.5096203,32.0860232 40.5096203,30.4149366 C40.5096203,28.7404427 39.159353,27.3829972 37.4969971,27.3829972 L32.8266621,27.3829972 L28.4755434,27.3829972 C26.8010496,27.3829972 25.4436041,26.0255517 25.4436041,24.3510579 C25.4436041,22.676564 26.8010496,21.3191185 28.4755434,21.3191185 L42.6367476,21.3191185 L56.3252399,21.3191185 C57.9914281,21.3191185 59.3421406,19.9582658 59.3421406,18.2871792 C59.3421406,16.6126853 57.9863535,15.2552398 56.3252399,15.2552398 L46.5455313,15.2552398 L43.5415596,15.2552398 C41.8670658,15.2552398 40.5096203,13.8977943 40.5096203,12.2233005 C40.5096203,10.5488066 41.8670658,9.1913611 43.5415596,9.1913611 L58.7616386,9.1913611 C69.2097878,3.39426463 81.2190345,0.0955430429 93.9939778,0.0955430429 C116.939063,0.0955430429 137.414027,10.7371457 150.810175,27.3829972 L160.265713,27.3829972 C161.940207,27.3829972 163.297652,28.7404427 163.297652,30.4149366 C163.297652,32.0894305 161.940207,33.4468759 160.265713,33.4468759 L155.20247,33.4468759 L135.418294,33.4468759 C133.75814,33.4468759 132.412319,34.8077287 132.412319,36.4788153 C132.412319,38.1533092 133.760684,39.5107546 135.418294,39.5107546 L158.742061,39.5107546 L175.331729,39.5107546 C177.006223,39.5107546 178.363669,40.8682001 178.363669,42.542694 C178.363669,44.2171879 177.006223,45.5746334 175.331729,45.5746334 L161.560209,45.5746334 L158.836277,45.5746334 C157.161783,45.5746334 155.804337,46.9320788 155.804337,48.6065727 C155.804337,50.2810666 157.161783,51.6385121 158.836277,51.6385121 L163.742602,51.6385121 L167.798721,51.6385121 C169.473215,51.6385121 170.830661,52.9959575 170.830661,54.6704514 C170.830661,56.3449453 169.473215,57.7023908 167.798721,57.7023908 L165.347171,57.7023908 L136.95086,57.7023908 C135.276366,57.7023908 133.918921,59.0598363 133.918921,60.7343301 C133.918921,62.408824 135.276366,63.7662695 136.95086,63.7662695 L160.981423,63.7662695 Z M67.6097134,94.085663 L66.140584,94.085663 C64.4660901,94.085663 63.1086446,95.4431085 63.1086446,97.1176024 C63.1086446,98.7920962 64.4660901,100.149542 66.140584,100.149542 L67.6097134,100.149542 C69.2842072,100.149542 70.6416527,98.7920962 70.6416527,97.1176024 C70.6416527,95.4431085 69.2842072,94.085663 67.6097134,94.085663 Z" id="path-2"></path>
        <path d="M13.9793845,2.39232558 C25.5282279,0.797441859 37.0770713,-1.24900921e-14 48.6259147,-1.42108547e-14 C60.418439,-1.42108547e-14 72.2109634,0.831448987 84.0034878,2.49434696 L84.0034882,2.49434432 C87.4007878,2.97340738 90.284178,5.22909459 91.5668711,8.41120787 C94.4872343,15.6560638 96.3167626,25.962649 97.055456,39.3309635 C97.9129738,54.8496704 97.0834076,70.5656788 94.5667576,86.4789889 L94.566758,86.478989 C94.1270395,89.2594221 92.4891304,91.7067524 90.0864163,93.173424 L48.6259147,118.481863 L7.37826082,93.3033564 C4.86975183,91.7721051 3.20084638,89.1761761 2.849084,86.2583668 C0.451036882,66.3669728 -0.433200013,50.724505 0.196373315,39.3309635 C0.768283976,28.9809573 2.77388404,18.7986187 6.21317351,8.7839476 L6.21317064,8.78394661 C7.38930229,5.35923585 10.3923875,2.88768627 13.9793845,2.39232558 Z" id="path-4"></path>
    </defs>
    <g id="icon_teacherPage-4" stroke="none" stroke-width="1" fill="none" fill-rule="evenodd">
        <rect id="Rectangle-19" fill="url(#linearGradient-1)" x="0" y="0" width="200" height="200"></rect>
        <g id="icon/profile/teacher" transform="translate(5.000000, 18.000000)">
            <g id="profile-icon-teacher-96sq">
                <rect id="bounds" x="18" y="17" width="154" height="154"></rect>
                <g id="circle_distort" transform="translate(0.000000, 0.416667)">
                    <g id="joined-shape" transform="translate(0.000000, -0.000000)">
                        <path d="M36.6990771,15.1596968 C35.0349309,15.1596968 33.6858739,13.8022513 33.6858739,12.1277574 C33.6858739,10.4532635 35.0349309,9.09581806 36.6990771,9.09581806 C38.3632233,9.09581806 39.7122804,10.4532635 39.7122804,12.1277574 C39.7122804,13.8022513 38.3632233,15.1596968 36.6990771,15.1596968 Z M187.986797,45.4654835 C186.322651,45.4654835 184.973594,44.108038 184.973594,42.4335442 C184.973594,40.7590503 186.322651,39.4016048 187.986797,39.4016048 C189.650943,39.4016048 191,40.7590503 191,42.4335442 C191,44.108038 189.650943,45.4654835 187.986797,45.4654835 Z M3.03193935,75.7984838 L7.51427199,75.7984838 C9.18876586,75.7984838 10.5462113,77.1559293 10.5462113,78.8304232 C10.5462113,80.5049171 9.18876586,81.8623626 7.51427199,81.8623626 L3.03193935,81.8623626 C1.35744549,81.8623626 2.05066356e-16,80.5049171 0,78.8304232 C-2.05066356e-16,77.1559293 1.35744549,75.7984838 3.03193935,75.7984838 Z" id="Combined-Shape" fill="#E02B3A" opacity="0.547098214"></path>
                        <mask id="mask-3" fill="white">
                            <use xlink:href="#path-2"></use>
                        </mask>
                        <use id="Combined-Shape" fill="#E02B3A" opacity="0.547098214" xlink:href="#path-2"></use>
                    </g>
                    <g id="white-subtraction" transform="translate(19.078789, 15.266037)"></g>
                </g>
                <g id="owl" transform="translate(43.666667, 25.020833)">
                    <g id="feet" transform="translate(19.476471, 124.974020)" fill="#119792">
                        <path d="M11.724922,12.9739216 C17.7976458,12.9739216 23.3491738,5.80088976 20.1778174,3.2594989 C18.6783698,2.05790509 14.0936595,0.159413785 11.724922,0.00289496026 C10.4329765,-0.0824727901 4.36623075,1.72604128 1.81699997,4.65104204 C-0.8452751,7.70575042 0.0180384982,9.91891514 0.681660577,11.0217257 C2.01935424,13.2447118 5.65219811,12.9739216 11.724922,12.9739216 Z" id="Oval-15"></path>
                        <path d="M53.9239416,12.9739216 C59.9966654,12.9739216 65.5481934,5.80088976 62.376837,3.2594989 C60.8773895,2.05790509 56.2926791,0.159413785 53.9239416,0.00289496026 C52.6319961,-0.0824727901 46.5652504,1.72604128 44.0160196,4.65104204 C41.3537445,7.70575042 42.2170581,9.91891514 42.8806802,11.0217257 C44.2183739,13.2447118 47.8512177,12.9739216 53.9239416,12.9739216 Z" id="Oval-15" transform="translate(52.748775, 6.492157) scale(-1, 1) translate(-52.748775, -6.492157) "></path>
                    </g>
                    <g id="ears" transform="translate(12.984314, 0.000000)" fill="#119792">
                        <path d="M8.73461681,0 C12.5433375,0 16.1322188,6.45752532 17.8396635,18.8335036 C18.0476752,20.3412236 18.0476752,22.7195982 17.8396635,25.9686275 L0.197721799,25.0850055 C0.0957855315,21.9718574 0.13431655,19.5571788 0.313314855,17.8409696 C1.74307606,4.13263146 4.73468333,6.98554742e-16 8.73461681,0 Z" id="Triangle"></path>
                        <path d="M68.0665494,0 C71.7355732,0 75.1928209,6.45752532 76.8376397,18.8335036 C77.0380219,20.3412236 77.0943051,22.0435077 77.0064891,23.9403558 L59.2954591,25.9686275 C59.1591069,22.3602811 59.1591069,19.9819065 59.2954591,18.8335036 C60.9161293,5.18368643 64.2133261,6.98554742e-16 68.0665494,0 Z" id="Triangle"></path>
                    </g>
                    <g id="body" transform="translate(3.246078, 19.476471)">
                        <mask id="mask-5" fill="white">
                            <use xlink:href="#path-4"></use>
                        </mask>
                        <use id="Rectangle" fill="#44D7D2" xlink:href="#path-4"></use>
                        <polygon id="Rectangle-2" fill="#FFFFFF" mask="url(#mask-5)" points="27.5916667 82.775 48.6911765 68.1676471 69.7906863 82.775 74.6598039 115.235784 48.6911765 124.97402 22.722549 115.235784"></polygon>
                        <g id="pattern" mask="url(#mask-5)" fill="#F59520" fill-rule="nonzero">
                            <g transform="translate(32.460784, 77.905882)">
                                <path d="M33.5099925,23.7717572 C33.8269106,23.4548391 34.3407364,23.4548391 34.6576545,23.7717572 C34.9745727,24.0886753 34.9745727,24.6025011 34.6576545,24.9194193 L30.6000565,28.9770173 C30.2831384,29.2939354 29.7693126,29.2939354 29.4523945,28.9770173 L25.3947964,24.9194193 C25.0778783,24.6025011 25.0778783,24.0886753 25.3947964,23.7717572 C25.7117146,23.4548391 26.2255403,23.4548391 26.5424585,23.7717572 L30.0262255,27.2555242 L33.5099925,23.7717572 Z" id="Path-6"></path>
                                <path d="M17.0419118,27.2555242 L20.5256788,23.7717572 C20.8425969,23.4548391 21.3564227,23.4548391 21.6733408,23.7717572 C21.9902589,24.0886753 21.9902589,24.6025011 21.6733408,24.9194193 L17.6157428,28.9770173 C17.2988247,29.2939354 16.7849989,29.2939354 16.4680807,28.9770173 L12.4104827,24.9194193 C12.0935646,24.6025011 12.0935646,24.0886753 12.4104827,23.7717572 C12.7274008,23.4548391 13.2412266,23.4548391 13.5581447,23.7717572 L17.0419118,27.2555242 Z" id="Path-6-Copy"></path>
                                <path d="M14.0335219,15.6565611 C14.35044,15.339643 14.8642658,15.339643 15.181184,15.6565611 C15.4981021,15.9734793 15.4981021,16.4873051 15.181184,16.8042232 L11.1235859,20.8618212 C10.8066678,21.1787393 10.292842,21.1787393 9.97592388,20.8618212 L5.91832584,16.8042232 C5.60140772,16.4873051 5.60140772,15.9734793 5.91832584,15.6565611 C6.23524397,15.339643 6.74906976,15.339643 7.06598788,15.6565611 L10.5497549,19.1403282 L14.0335219,15.6565611 Z" id="Path-6-Copy-6"></path>
                                <path d="M27.0178356,15.6565611 C27.3347538,15.339643 27.8485796,15.339643 28.1654977,15.6565611 C28.4824158,15.9734793 28.4824158,16.4873051 28.1654977,16.8042232 L24.1078996,20.8618212 C23.7909815,21.1787393 23.2771557,21.1787393 22.9602376,20.8618212 L18.9026396,16.8042232 C18.5857215,16.4873051 18.5857215,15.9734793 18.9026396,15.6565611 C19.2195577,15.339643 19.7333835,15.339643 20.0503016,15.6565611 L23.5340686,19.1403282 L27.0178356,15.6565611 Z" id="Path-6-Copy-7"></path>
                                <path d="M14.0335219,-0.573831018 C14.35044,-0.890749138 14.8642658,-0.890749138 15.181184,-0.573831018 C15.4981021,-0.256912898 15.4981021,0.256912898 15.181184,0.573831018 L11.1235859,4.63142906 C10.8066678,4.94834718 10.292842,4.94834718 9.97592388,4.63142906 L5.91832584,0.573831018 C5.60140772,0.256912898 5.60140772,-0.256912898 5.91832584,-0.573831018 C6.23524397,-0.890749138 6.74906976,-0.890749138 7.06598788,-0.573831018 L10.5497549,2.909936 L14.0335219,-0.573831018 Z" id="Path-6-Copy-9"></path>
                                <path d="M27.0178356,-0.573831018 C27.3347538,-0.890749138 27.8485796,-0.890749138 28.1654977,-0.573831018 C28.4824158,-0.256912898 28.4824158,0.256912898 28.1654977,0.573831018 L24.1078996,4.63142906 C23.7909815,4.94834718 23.2771557,4.94834718 22.9602376,4.63142906 L18.9026396,0.573831018 C18.5857215,0.256912898 18.5857215,-0.256912898 18.9026396,-0.573831018 C19.2195577,-0.890749138 19.7333835,-0.890749138 20.0503016,-0.573831018 L23.5340686,2.909936 L27.0178356,-0.573831018 Z" id="Path-6-Copy-8"></path>
                                <path d="M7.54136506,23.7717572 C7.85828318,23.4548391 8.37210898,23.4548391 8.6890271,23.7717572 C9.00594522,24.0886753 9.00594522,24.6025011 8.6890271,24.9194193 L4.63142906,28.9770173 C4.31451094,29.2939354 3.80068514,29.2939354 3.48376702,28.9770173 L-0.573831018,24.9194193 C-0.890749138,24.6025011 -0.890749138,24.0886753 -0.573831018,23.7717572 C-0.256912898,23.4548391 0.256912898,23.4548391 0.573831018,23.7717572 L4.05759804,27.2555242 L7.54136506,23.7717572 Z" id="Path-6-Copy-2"></path>
                                <path d="M33.5099925,7.54136506 C33.8269106,7.22444694 34.3407364,7.22444694 34.6576545,7.54136506 C34.9745727,7.85828318 34.9745727,8.37210898 34.6576545,8.6890271 L30.6000565,12.7466251 C30.2831384,13.0635433 29.7693126,13.0635433 29.4523945,12.7466251 L25.3947964,8.6890271 C25.0778783,8.37210898 25.0778783,7.85828318 25.3947964,7.54136506 C25.7117146,7.22444694 26.2255403,7.22444694 26.5424585,7.54136506 L30.0262255,11.0251321 L33.5099925,7.54136506 Z" id="Path-6-Copy-5"></path>
                                <path d="M20.5256788,7.54136506 C20.8425969,7.22444694 21.3564227,7.22444694 21.6733408,7.54136506 C21.9902589,7.85828318 21.9902589,8.37210898 21.6733408,8.6890271 L17.6157428,12.7466251 C17.2988247,13.0635433 16.7849989,13.0635433 16.4680807,12.7466251 L12.4104827,8.6890271 C12.0935646,8.37210898 12.0935646,7.85828318 12.4104827,7.54136506 C12.7274008,7.22444694 13.2412266,7.22444694 13.5581447,7.54136506 L17.0419118,11.0251321 L20.5256788,7.54136506 Z" id="Path-6-Copy-4"></path>
                                <path d="M4.05759804,11.0251321 L7.54136506,7.54136506 C7.85828318,7.22444694 8.37210898,7.22444694 8.6890271,7.54136506 C9.00594522,7.85828318 9.00594522,8.37210898 8.6890271,8.6890271 L4.63142906,12.7466251 C4.31451094,13.0635433 3.80068514,13.0635433 3.48376702,12.7466251 L-0.573831018,8.6890271 C-0.890749138,8.37210898 -0.890749138,7.85828318 -0.573831018,7.54136506 C-0.256912898,7.22444694 0.256912898,7.22444694 0.573831018,7.54136506 L4.05759804,11.0251321 Z" id="Path-6-Copy-3"></path>
                            </g>
                        </g>
                    </g>
                    <g id="eyes" transform="translate(0.000000, 34.083824)">
                        <g id="Group-2" fill="#7FE5E2" stroke="#FFFFFF" stroke-width="2.4">
                            <circle id="glasses_right" cx="77.9058824" cy="25.9686275" r="24.7686275"></circle>
                            <circle id="glasses_left" cx="25.9686275" cy="25.9686275" r="24.7686275"></circle>
                        </g>
                        <g id="Group" transform="translate(38.952941, 22.722549)" fill="#15131C">
                            <path d="M3.93205791,11.3612745 C6.09252944,11.3612745 8.11519608,8.81796658 8.11519608,5.68063725 C8.11519608,2.54330793 5.89058395,2.80843102e-12 3.93205791,2.25608173e-13 C1.97353186,-2.35543831e-12 6.25277607e-13,2.54330793 6.25277607e-13,5.68063725 C6.25277607e-13,8.81796658 1.77158637,11.3612745 3.93205791,11.3612745 Z" id="Oval-10"></path>
                            <path d="M21.7854893,11.3612745 C23.9459608,11.3612745 25.9686275,8.81796658 25.9686275,5.68063725 C25.9686275,2.54330793 23.7440153,2.81376009e-12 21.7854893,2.30937244e-13 C19.8269632,-2.3518856e-12 17.8534314,2.54330793 17.8534314,5.68063725 C17.8534314,8.81796658 19.6250177,11.3612745 21.7854893,11.3612745 Z" id="Oval-10-Copy"></path>
                        </g>
                    </g>
                    <g id="wings" transform="translate(0.000000, 84.398039)" fill="#119792">
                        <path d="M7.28053549,27.5916667 C12.0049634,27.5916667 16.0586471,21.3330053 16.0586471,13.7958333 C16.0586471,6.25866137 17.3479759,0 12.8612886,0 C7.93385059,1.01902683e-15 1.4075149,7.97238254 0.229650525,13.7958333 C-0.948213855,19.6192841 2.55610759,27.5916667 7.28053549,27.5916667 Z" id="Oval-14"></path>
                        <path d="M94.9246531,27.5916667 C99.649081,27.5916667 103.702765,21.3330053 103.702765,13.7958333 C103.702765,6.25866137 104.992094,0 100.505406,0 C95.5779682,1.01902683e-15 89.0516326,7.97238254 87.8737682,13.7958333 C86.6959038,19.6192841 90.2002252,27.5916667 94.9246531,27.5916667 Z" id="Oval-14" transform="translate(95.759314, 13.795833) scale(-1, 1) translate(-95.759314, -13.795833) "></path>
                    </g>
                </g>
            </g>
        </g>
    </g>
</svg>