<svg width="29" height="24" viewBox="0 0 29 24" fill="none" xmlns="http://www.w3.org/2000/svg">
<path fill-rule="evenodd" clip-rule="evenodd" d="M0 7C0 3.13401 3.13401 0 7 0H14C17.866 0 21 3.13401 21 7C21 10.866 17.866 14 14 14H8.77629L4.56452 18.373C4.38618 18.5582 4.13979 18.6629 3.88227 18.6629C3.35995 18.6629 2.93652 18.2408 2.93652 17.7202V12.7005C1.15888 11.4311 0 9.35088 0 7ZM15.0002 19C12.6214 19 10.5198 17.8135 9.25488 16H14.0002C18.9708 16 23.0002 11.9705 23.0002 6.99997C23.0002 6.32815 22.9266 5.67352 22.787 5.0437C26.2826 5.43469 29.0002 8.39997 29.0002 12C29.0002 14.3509 27.8413 16.4311 26.0637 17.7005V22.7202C26.0637 23.2408 25.6402 23.6628 25.1179 23.6628C24.8604 23.6628 24.614 23.5582 24.4357 23.373L20.2239 19H15.0002Z" fill="white"/>
</svg>
